<mxfile host="app.diagrams.net" modified="2024-03-13T06:25:56.357Z" agent="Mozilla/5.0 (Windows NT 10.0; Win64; x64) AppleWebKit/537.36 (KHTML, like Gecko) Chrome/120.0.0.0 YaBrowser/24.1.0.0 Safari/537.36" etag="BtPC860OIz82BmX0eUK-" version="24.0.5" type="github">
  <diagram name="Страница — 1" id="WoKETw-Qhi6QnB1UZ4ne">
    <mxGraphModel dx="2520" dy="1424" grid="1" gridSize="10" guides="1" tooltips="1" connect="1" arrows="1" fold="1" page="1" pageScale="1" pageWidth="1169" pageHeight="827" math="0" shadow="0">
      <root>
        <mxCell id="0" />
        <mxCell id="1" parent="0" />
        <mxCell id="6O7pvicnhSxle53OSgdo-11" style="edgeStyle=orthogonalEdgeStyle;rounded=0;orthogonalLoop=1;jettySize=auto;html=1;exitX=1.002;exitY=0.726;exitDx=0;exitDy=0;exitPerimeter=0;" parent="1" source="6O7pvicnhSxle53OSgdo-10" edge="1">
          <mxGeometry relative="1" as="geometry">
            <mxPoint x="440" y="90" as="targetPoint" />
          </mxGeometry>
        </mxCell>
        <mxCell id="6O7pvicnhSxle53OSgdo-16" style="edgeStyle=orthogonalEdgeStyle;rounded=0;orthogonalLoop=1;jettySize=auto;html=1;exitX=0.995;exitY=0.784;exitDx=0;exitDy=0;entryX=0;entryY=0.5;entryDx=0;entryDy=0;exitPerimeter=0;" parent="1" source="6O7pvicnhSxle53OSgdo-10" target="6O7pvicnhSxle53OSgdo-15" edge="1">
          <mxGeometry relative="1" as="geometry" />
        </mxCell>
        <mxCell id="6O7pvicnhSxle53OSgdo-10" value="&lt;div&gt;&lt;b&gt;UserProfileModel (Профиль пользователя)&lt;/b&gt;&lt;br&gt;&lt;/div&gt;&lt;div&gt;&lt;br&gt;&lt;/div&gt;&lt;div&gt;email: str&lt;/div&gt;&lt;div&gt;status: str&lt;/div&gt;&lt;div&gt;auth_type: str&lt;/div&gt;&lt;div&gt;first_name: str&lt;/div&gt;&lt;div&gt;last_name: str&lt;/div&gt;&lt;div&gt;middle_name: Optional[str]&lt;/div&gt;&lt;div&gt;mobile_phone: str&lt;/div&gt;&lt;div&gt;lang: str&lt;/div&gt;&lt;div&gt;jurisdictions_list: List[JurisdictionModel]&lt;/div&gt;&lt;div&gt;roles_list: List[str]&lt;/div&gt;&lt;div&gt;checks_list: Optional[List[JurisdictionCheckModel]]&lt;/div&gt;&lt;div&gt;legal_fields: Optional[JSON]&lt;/div&gt;" style="rounded=0;whiteSpace=wrap;html=1;align=left;" parent="1" vertex="1">
          <mxGeometry x="40" y="90" width="290" height="230" as="geometry" />
        </mxCell>
        <mxCell id="6O7pvicnhSxle53OSgdo-14" style="edgeStyle=orthogonalEdgeStyle;rounded=0;orthogonalLoop=1;jettySize=auto;html=1;exitX=1.001;exitY=0.803;exitDx=0;exitDy=0;entryX=0;entryY=0.25;entryDx=0;entryDy=0;exitPerimeter=0;" parent="1" source="6O7pvicnhSxle53OSgdo-12" target="6O7pvicnhSxle53OSgdo-13" edge="1">
          <mxGeometry relative="1" as="geometry" />
        </mxCell>
        <mxCell id="6O7pvicnhSxle53OSgdo-12" value="&lt;b&gt;JurisdictionModel (Юрисдикция)&lt;/b&gt;&lt;div&gt;&lt;br&gt;&lt;/div&gt;&lt;div&gt;&lt;div&gt;code: str&lt;/div&gt;&lt;div&gt;name: str&lt;/div&gt;&lt;div&gt;langs_list: List[JurisdictionLangModel]&lt;/div&gt;&lt;/div&gt;" style="rounded=0;whiteSpace=wrap;html=1;align=left;" parent="1" vertex="1">
          <mxGeometry x="440" y="70" width="210" height="100" as="geometry" />
        </mxCell>
        <mxCell id="6O7pvicnhSxle53OSgdo-13" value="&lt;b&gt;JurisdictionLangModel (Язык)&lt;/b&gt;&lt;div&gt;&lt;br&gt;&lt;/div&gt;&lt;div&gt;&lt;div&gt;lang: str&lt;/div&gt;&lt;div&gt;content: Optional[str]&lt;/div&gt;&lt;/div&gt;" style="rounded=0;whiteSpace=wrap;html=1;align=left;" parent="1" vertex="1">
          <mxGeometry x="760" y="70" width="210" height="70" as="geometry" />
        </mxCell>
        <mxCell id="6O7pvicnhSxle53OSgdo-15" value="&lt;div&gt;&lt;b&gt;Список ролей (строк)&lt;/b&gt;&lt;/div&gt;" style="rounded=0;whiteSpace=wrap;html=1;align=left;" parent="1" vertex="1">
          <mxGeometry x="440" y="250" width="170" height="30" as="geometry" />
        </mxCell>
        <mxCell id="6O7pvicnhSxle53OSgdo-17" value="&lt;b&gt;JurisdictionCheckModel (Проверка)&lt;/b&gt;&lt;div&gt;&lt;br&gt;&lt;/div&gt;&lt;div&gt;&lt;div&gt;name: str&lt;/div&gt;&lt;div&gt;type: str&lt;/div&gt;&lt;div&gt;status: str&lt;/div&gt;&lt;div&gt;content: Optional[str]&lt;/div&gt;&lt;div&gt;jurisdiction_code: str&lt;/div&gt;&lt;div&gt;lang: str&lt;/div&gt;&lt;div&gt;roles_list: Optional[List[str]]&lt;/div&gt;&lt;div&gt;note: Optional[str]&lt;/div&gt;&lt;div&gt;legal_fields: Optional[JSON]&lt;/div&gt;&lt;/div&gt;" style="rounded=0;whiteSpace=wrap;html=1;align=left;" parent="1" vertex="1">
          <mxGeometry x="440" y="350" width="210" height="180" as="geometry" />
        </mxCell>
        <mxCell id="6O7pvicnhSxle53OSgdo-18" style="edgeStyle=orthogonalEdgeStyle;rounded=0;orthogonalLoop=1;jettySize=auto;html=1;exitX=1.003;exitY=0.843;exitDx=0;exitDy=0;entryX=0.003;entryY=0.102;entryDx=0;entryDy=0;entryPerimeter=0;exitPerimeter=0;" parent="1" source="6O7pvicnhSxle53OSgdo-10" target="6O7pvicnhSxle53OSgdo-17" edge="1">
          <mxGeometry relative="1" as="geometry" />
        </mxCell>
        <mxCell id="zR02sAmEJCsTwKlKsC6b-3" style="edgeStyle=orthogonalEdgeStyle;rounded=0;orthogonalLoop=1;jettySize=auto;html=1;exitX=0.998;exitY=0.432;exitDx=0;exitDy=0;entryX=0;entryY=0.5;entryDx=0;entryDy=0;exitPerimeter=0;" edge="1" parent="1" source="zR02sAmEJCsTwKlKsC6b-1" target="zR02sAmEJCsTwKlKsC6b-2">
          <mxGeometry relative="1" as="geometry" />
        </mxCell>
        <mxCell id="zR02sAmEJCsTwKlKsC6b-5" style="edgeStyle=orthogonalEdgeStyle;rounded=0;orthogonalLoop=1;jettySize=auto;html=1;exitX=1.002;exitY=0.236;exitDx=0;exitDy=0;entryX=-0.002;entryY=0.175;entryDx=0;entryDy=0;entryPerimeter=0;exitPerimeter=0;" edge="1" parent="1" source="zR02sAmEJCsTwKlKsC6b-1" target="zR02sAmEJCsTwKlKsC6b-4">
          <mxGeometry relative="1" as="geometry" />
        </mxCell>
        <mxCell id="zR02sAmEJCsTwKlKsC6b-10" style="edgeStyle=orthogonalEdgeStyle;rounded=0;orthogonalLoop=1;jettySize=auto;html=1;exitX=0.998;exitY=0.655;exitDx=0;exitDy=0;entryX=0;entryY=0.25;entryDx=0;entryDy=0;exitPerimeter=0;" edge="1" parent="1" source="zR02sAmEJCsTwKlKsC6b-1" target="zR02sAmEJCsTwKlKsC6b-8">
          <mxGeometry relative="1" as="geometry">
            <Array as="points">
              <mxPoint x="400" y="1066" />
              <mxPoint x="400" y="1020" />
            </Array>
          </mxGeometry>
        </mxCell>
        <mxCell id="zR02sAmEJCsTwKlKsC6b-1" value="&lt;div&gt;&lt;b&gt;RealEstateAssetModel (Объект недвижимости)&lt;/b&gt;&lt;/div&gt;&lt;div&gt;&lt;br&gt;&lt;/div&gt;&lt;div&gt;name: str&lt;/div&gt;&lt;div&gt;status: str&lt;/div&gt;&lt;div&gt;content: Optional[str]&lt;/div&gt;&lt;div&gt;jurisdiction_code: str&lt;/div&gt;&lt;div&gt;lang: str&lt;/div&gt;&lt;div&gt;country_name: str&lt;/div&gt;&lt;div&gt;address: str&lt;/div&gt;&lt;div&gt;coords_list: Optional[List[CoordsModel]]&lt;/div&gt;&lt;div&gt;cadaster_list: Optional[str]&lt;/div&gt;&lt;div&gt;begin_date: Optional[datetime]&lt;/div&gt;&lt;div&gt;legal_date: Optional[datetime]&lt;/div&gt;&lt;div&gt;legal_doc: Optional[str]&lt;/div&gt;&lt;div&gt;owner_list: Optional[List[LegalEntityModel]]&lt;/div&gt;&lt;div&gt;kind: str&lt;/div&gt;&lt;div&gt;purpose: str&lt;/div&gt;&lt;div&gt;legal_use: Optional[str]&lt;/div&gt;&lt;div&gt;tags_list: Optional[List[str]]&lt;/div&gt;&lt;div&gt;square_value: Optional[float]&lt;/div&gt;&lt;div&gt;square_unit: Optional[str]&lt;/div&gt;&lt;div&gt;build_square_value: Optional[float]&lt;/div&gt;&lt;div&gt;build_square_unit: Optional[str]&lt;/div&gt;&lt;div&gt;floor_count: Optional[int]&lt;/div&gt;&lt;div&gt;floor: Optional[int]&lt;/div&gt;&lt;div&gt;build_progress: Optional[float]&lt;/div&gt;&lt;div&gt;special_notes: Optional[str]&lt;/div&gt;&lt;div&gt;pictures_list: Optional[List[FileAttachmentModel]]&lt;/div&gt;&lt;div&gt;docs_list: Optional[List[FileAttachmentModel]]&lt;/div&gt;&lt;div&gt;price_value: Optional[float]&lt;/div&gt;&lt;div&gt;price_unit: Optional[str]&lt;/div&gt;&lt;div&gt;checks_list: Optional[List[JurisdictionCheckModel]]&lt;/div&gt;&lt;div&gt;tokenization_status: Optional[str]&lt;/div&gt;&lt;div&gt;tokenization_type: Optional[str]&lt;/div&gt;&lt;div&gt;token_type: Optional[str]&lt;/div&gt;&lt;div&gt;token_count: Optional[int]&lt;/div&gt;&lt;div&gt;token_available: Optional[int]&lt;/div&gt;&lt;div&gt;token_price_value: Optional[float]&lt;/div&gt;&lt;div&gt;token_price_unit: Optional[str]&lt;/div&gt;&lt;div&gt;smart_contract: Optional[str]&lt;/div&gt;&lt;div&gt;account_owner: str&lt;/div&gt;&lt;div&gt;legal_fields: Optional[JSON]&lt;/div&gt;&lt;div&gt;note: Optional[str]&lt;/div&gt;" style="rounded=0;whiteSpace=wrap;html=1;align=left;" vertex="1" parent="1">
          <mxGeometry x="40" y="650" width="290" height="640" as="geometry" />
        </mxCell>
        <mxCell id="zR02sAmEJCsTwKlKsC6b-2" value="&lt;div&gt;&lt;b&gt;Список тэгов (строк)&lt;/b&gt;&lt;/div&gt;" style="rounded=0;whiteSpace=wrap;html=1;align=left;" vertex="1" parent="1">
          <mxGeometry x="440" y="930" width="170" height="30" as="geometry" />
        </mxCell>
        <mxCell id="zR02sAmEJCsTwKlKsC6b-4" value="&lt;div&gt;&lt;b&gt;CoordsModel (Координаты)&lt;/b&gt;&lt;/div&gt;&lt;div&gt;&lt;b&gt;&lt;br&gt;&lt;/b&gt;&lt;/div&gt;&lt;div&gt;latitude: float&lt;/div&gt;&lt;div&gt;longitude: float&lt;/div&gt;" style="rounded=0;whiteSpace=wrap;html=1;align=left;" vertex="1" parent="1">
          <mxGeometry x="440" y="700" width="210" height="70" as="geometry" />
        </mxCell>
        <mxCell id="zR02sAmEJCsTwKlKsC6b-6" value="&lt;div&gt;&lt;b&gt;LegalEntityModel (Держатель актива)&lt;/b&gt;&lt;/div&gt;&lt;div&gt;&lt;b&gt;&lt;br&gt;&lt;/b&gt;&lt;/div&gt;&lt;div&gt;name: str&lt;/div&gt;&lt;div&gt;type: str&lt;/div&gt;&lt;div&gt;content: str&lt;/div&gt;&lt;div&gt;legal_fields: Optional[JSON]&lt;/div&gt;" style="rounded=0;whiteSpace=wrap;html=1;align=left;" vertex="1" parent="1">
          <mxGeometry x="440" y="790" width="210" height="120" as="geometry" />
        </mxCell>
        <mxCell id="zR02sAmEJCsTwKlKsC6b-7" style="edgeStyle=orthogonalEdgeStyle;rounded=0;orthogonalLoop=1;jettySize=auto;html=1;exitX=1;exitY=0.343;exitDx=0;exitDy=0;exitPerimeter=0;" edge="1" parent="1" source="zR02sAmEJCsTwKlKsC6b-1">
          <mxGeometry relative="1" as="geometry">
            <mxPoint x="440" y="807" as="targetPoint" />
          </mxGeometry>
        </mxCell>
        <mxCell id="zR02sAmEJCsTwKlKsC6b-8" value="&lt;div&gt;&lt;b&gt;FileAttachmentModel&lt;/b&gt;&lt;/div&gt;&lt;div&gt;&lt;b&gt;(Прикрепленный файл)&lt;/b&gt;&lt;br&gt;&lt;/div&gt;&lt;div&gt;&lt;b&gt;&lt;br&gt;&lt;/b&gt;&lt;/div&gt;&lt;div&gt;&lt;div&gt;name: str&lt;/div&gt;&lt;div&gt;ext: Optional[str]&lt;/div&gt;&lt;div&gt;path: Optional[str]&lt;/div&gt;&lt;div&gt;type: str&lt;/div&gt;&lt;/div&gt;" style="rounded=0;whiteSpace=wrap;html=1;align=left;" vertex="1" parent="1">
          <mxGeometry x="440" y="990" width="210" height="120" as="geometry" />
        </mxCell>
        <mxCell id="zR02sAmEJCsTwKlKsC6b-9" style="edgeStyle=orthogonalEdgeStyle;rounded=0;orthogonalLoop=1;jettySize=auto;html=1;exitX=1;exitY=0.626;exitDx=0;exitDy=0;entryX=0;entryY=0.13;entryDx=0;entryDy=0;entryPerimeter=0;exitPerimeter=0;" edge="1" parent="1" source="zR02sAmEJCsTwKlKsC6b-1" target="zR02sAmEJCsTwKlKsC6b-8">
          <mxGeometry relative="1" as="geometry" />
        </mxCell>
        <mxCell id="zR02sAmEJCsTwKlKsC6b-11" value="&lt;b&gt;JurisdictionCheckModel (Проверка)&lt;/b&gt;&lt;div&gt;&lt;br&gt;&lt;/div&gt;&lt;div&gt;&lt;div&gt;name: str&lt;/div&gt;&lt;div&gt;type: str&lt;/div&gt;&lt;div&gt;status: str&lt;/div&gt;&lt;div&gt;content: Optional[str]&lt;/div&gt;&lt;div&gt;jurisdiction_code: str&lt;/div&gt;&lt;div&gt;lang: str&lt;/div&gt;&lt;div&gt;roles_list: Optional[List[str]]&lt;/div&gt;&lt;div&gt;note: Optional[str]&lt;/div&gt;&lt;div&gt;legal_fields: Optional[JSON]&lt;/div&gt;&lt;/div&gt;" style="rounded=0;whiteSpace=wrap;html=1;align=left;" vertex="1" parent="1">
          <mxGeometry x="440" y="1140" width="210" height="180" as="geometry" />
        </mxCell>
        <mxCell id="zR02sAmEJCsTwKlKsC6b-12" style="edgeStyle=orthogonalEdgeStyle;rounded=0;orthogonalLoop=1;jettySize=auto;html=1;exitX=1;exitY=0.723;exitDx=0;exitDy=0;entryX=0.003;entryY=0.09;entryDx=0;entryDy=0;entryPerimeter=0;exitPerimeter=0;" edge="1" parent="1" source="zR02sAmEJCsTwKlKsC6b-1" target="zR02sAmEJCsTwKlKsC6b-11">
          <mxGeometry relative="1" as="geometry" />
        </mxCell>
      </root>
    </mxGraphModel>
  </diagram>
</mxfile>
